<svg version="1.1" id="Layer_1" xmlns="http://www.w3.org/2000/svg" xmlns:xlink="http://www.w3.org/1999/xlink" x="0px" y="0px"
	 width="100%" viewBox="0 0 142 128" enable-background="new 0 0 142 128" xml:space="preserve">
<path fill="#000000" opacity="1.000000" stroke="none" 
	d="
M88.000000,129.000000 
	C58.693386,129.000000 29.886772,129.000000 1.040079,129.000000 
	C1.040079,86.399620 1.040079,43.799198 1.040079,1.099386 
	C48.223030,1.099386 95.446335,1.099386 142.834824,1.099386 
	C142.834824,43.666149 142.834824,86.333015 142.834824,129.000000 
	C124.799622,129.000000 106.649811,129.000000 88.000000,129.000000 
M82.995697,95.583565 
	C82.995697,102.341957 82.995697,109.100357 82.995697,115.843933 
	C89.637978,115.843933 95.606628,115.843933 101.453773,115.843933 
	C113.300072,83.883926 125.079765,52.103611 136.913208,20.178268 
	C128.475662,19.781694 128.522079,19.797781 125.854149,27.495365 
	C120.975945,41.570068 115.977806,55.603416 111.144066,69.693245 
	C107.950378,79.002502 104.956360,88.380257 101.872940,97.727341 
	C101.353363,97.638878 100.833778,97.550415 100.314194,97.461952 
	C100.314194,71.750954 100.314194,46.039967 100.314194,19.995802 
	C95.413414,19.995802 91.278755,20.109219 87.154167,19.954315 
	C84.578011,19.857565 83.657379,20.755222 82.801720,23.340895 
	C76.039261,43.775856 68.986130,64.114655 62.016846,84.481125 
	C60.620819,88.560760 59.201157,92.632301 57.792393,96.707581 
	C57.281052,96.612358 56.769707,96.517143 56.258366,96.421921 
	C56.258366,71.048676 56.258366,45.675426 56.258366,20.246912 
	C44.134750,19.049566 33.679073,22.030714 24.136856,27.666410 
	C16.192200,32.358574 9.177605,38.337311 6.627997,47.915401 
	C5.305550,52.883430 5.083980,58.140820 8.810963,61.806831 
	C11.084193,64.042870 15.158430,64.447952 19.413975,66.047668 
	C14.172060,47.709755 24.392500,30.360386 36.783119,29.416912 
	C37.528606,58.206589 38.274113,86.997162 39.025230,116.004242 
	C44.380966,116.004242 49.208153,116.228302 53.990829,115.865494 
	C55.396149,115.758896 57.393929,114.264580 57.903236,112.938766 
	C64.401161,96.023643 70.660347,79.016953 77.024681,62.050220 
	C78.278282,58.708229 79.720222,55.436886 81.075302,52.132961 
	C81.715439,52.234833 82.355568,52.336700 82.995697,52.438568 
	C82.995697,66.495445 82.995697,80.552330 82.995697,95.583565 
z"/>
<path fill="#FDFDFD" opacity="1.000000" stroke="none" 
	d="
M82.995697,95.096390 
	C82.995697,80.552330 82.995697,66.495445 82.995697,52.438568 
	C82.355568,52.336700 81.715439,52.234833 81.075302,52.132961 
	C79.720222,55.436886 78.278282,58.708229 77.024681,62.050220 
	C70.660347,79.016953 64.401161,96.023643 57.903236,112.938766 
	C57.393929,114.264580 55.396149,115.758896 53.990829,115.865494 
	C49.208153,116.228302 44.380966,116.004242 39.025230,116.004242 
	C38.274113,86.997162 37.528606,58.206589 36.783119,29.416912 
	C24.392500,30.360386 14.172060,47.709755 19.413975,66.047668 
	C15.158430,64.447952 11.084193,64.042870 8.810963,61.806831 
	C5.083980,58.140820 5.305550,52.883430 6.627997,47.915401 
	C9.177605,38.337311 16.192200,32.358574 24.136856,27.666410 
	C33.679073,22.030714 44.134750,19.049566 56.258366,20.246912 
	C56.258366,45.675426 56.258366,71.048676 56.258366,96.421921 
	C56.769707,96.517143 57.281052,96.612358 57.792393,96.707581 
	C59.201157,92.632301 60.620819,88.560760 62.016846,84.481125 
	C68.986130,64.114655 76.039261,43.775856 82.801720,23.340895 
	C83.657379,20.755222 84.578011,19.857565 87.154167,19.954315 
	C91.278755,20.109219 95.413414,19.995802 100.314194,19.995802 
	C100.314194,46.039967 100.314194,71.750954 100.314194,97.461952 
	C100.833778,97.550415 101.353363,97.638878 101.872940,97.727341 
	C104.956360,88.380257 107.950378,79.002502 111.144066,69.693245 
	C115.977806,55.603416 120.975945,41.570068 125.854149,27.495365 
	C128.522079,19.797781 128.475662,19.781694 136.913208,20.178268 
	C125.079765,52.103611 113.300072,83.883926 101.453773,115.843933 
	C95.606628,115.843933 89.637978,115.843933 82.995697,115.843933 
	C82.995697,109.100357 82.995697,102.341957 82.995697,95.096390 
z"/>
</svg>